# xmcd
#
# Track frame offsets:
#	150
#	12012
#	24813
#	38539
#	53014
#	62025
#	72293
#	87764
#	100696
#	119429
#	135856
#	154914
#
# Disc length: 2294 seconds
#
# Revision: 1
# Processed by: cddbd v1.5.2PL0 Copyright (c) Steve Scherf et al.
# Submitted via: audiograbber 1.83.01
#
DISCID=8408f40c
DTITLE=Mike Burns - Mike Burns
DYEAR=2018
DGENRE=Country
TTITLE0=Nashville Cats
TTITLE1=Please Don't Bury Me
TTITLE2=Hot Rod Lincoln
TTITLE3=Streets of Laredo
TTITLE4=Sam's Place
TTITLE5=Chaparral
TTITLE6=Paradise
TTITLE7=Sing Me Back Home
TTITLE8=Aw Shucks, Hush Your Mouth
TTITLE9=Romeo and the Lonely Girl
TTITLE10=Sunday Mornin' Comin' Down
TTITLE11=Hurt
EXTD=
EXTT0=
EXTT1=
EXTT2=
EXTT3=
EXTT4=
EXTT5=
EXTT6=
EXTT7=
EXTT8=
EXTT9=
EXTT10=
EXTT11=
PLAYORDER=
